<svg xmlns="http://www.w3.org/2000/svg" fill-rule="evenodd" stroke-linejoin="round" stroke-miterlimit="2" clip-rule="evenodd" viewBox="0 0 64 64"><path fill="none" d="M0 0h64v64H0z"/><path fill="url(#a)" d="M33.378 13.44a1.04 1.04 0 0 0-1.756 0s-7.155 11.228-11.449 21.333c-1.891 4.451-3.215 8.699-3.215 11.727 0 8.578 6.964 15.542 15.542 15.542S48.042 55.078 48.042 46.5c0-3.028-1.324-7.276-3.215-11.727C40.533 24.668 33.378 13.44 33.378 13.44Zm-.878 2.53c2.022 3.292 7.086 11.796 10.409 19.618 1.763 4.148 3.049 8.09 3.049 10.912 0 7.428-6.03 13.458-13.458 13.458S19.042 53.928 19.042 46.5c0-2.822 1.286-6.764 3.049-10.912 3.323-7.822 8.387-16.326 10.409-19.617v-.001Z" transform="translate(-.5 -5.5)"/><path fill="url(#b)" d="M31.251 52.03s7.369 1.168 10.706-6.62a1.04 1.04 0 1 0-1.914-.82c-2.663 6.212-8.479 5.38-8.479 5.38a1.043 1.043 0 0 0-.313 2.06Z"/><path fill="url(#c)" d="M30.546 39.042h2.908l.807 2.217a1.042 1.042 0 0 0 1.958-.713l-3.24-8.902a1.053 1.053 0 0 0-.242-.381 1.053 1.053 0 0 0-.734-.305h-.006a1.04 1.04 0 0 0-.976.686l-3.24 8.902a1.041 1.041 0 1 0 1.958.713l.807-2.217Zm.758-2.084h1.392L32 35.046l-.696 1.912Z"/><defs><linearGradient id="a" x1="0" x2="1" y1="0" y2="0" gradientTransform="matrix(64 -63 63 64 .5 68.5)" gradientUnits="userSpaceOnUse"><stop offset="0" stop-color="#ff000e"/><stop offset="1" stop-color="#642020"/></linearGradient><linearGradient id="b" x1="0" x2="1" y1="0" y2="0" gradientTransform="matrix(64 -63 63 64 0 63)" gradientUnits="userSpaceOnUse"><stop offset="0" stop-color="#ff000e"/><stop offset="1" stop-color="#642020"/></linearGradient><linearGradient id="c" x1="0" x2="1" y1="0" y2="0" gradientTransform="matrix(64 -63 63 64 0 63)" gradientUnits="userSpaceOnUse"><stop offset="0" stop-color="#ff000e"/><stop offset="1" stop-color="#642020"/></linearGradient></defs></svg>