<svg xmlns="http://www.w3.org/2000/svg" fill-rule="evenodd" stroke-linejoin="round" stroke-miterlimit="2" clip-rule="evenodd" viewBox="0 0 64 64"><path fill="none" d="M0 0h64v64H0z"/><path fill="url(#a)" d="M33.378 13.44a1.04 1.04 0 0 0-1.756 0s-7.155 11.228-11.449 21.333c-1.891 4.451-3.215 8.699-3.215 11.727 0 8.578 6.964 15.542 15.542 15.542S48.042 55.078 48.042 46.5c0-3.028-1.324-7.276-3.215-11.727C40.533 24.668 33.378 13.44 33.378 13.44Zm-.878 2.53c2.022 3.292 7.086 11.796 10.409 19.618 1.763 4.148 3.049 8.09 3.049 10.912 0 7.428-6.03 13.458-13.458 13.458S19.042 53.928 19.042 46.5c0-2.822 1.286-6.764 3.049-10.912 3.323-7.822 8.387-16.326 10.409-19.617v-.001Z" transform="translate(-.5 -5.5)"/><path fill="url(#b)" d="M34.391 35.678c1.158-.607 1.928-1.872 1.928-3.297v-.103c0-.976-.365-1.912-1.014-2.602a3.365 3.365 0 0 0-2.45-1.077H27c-.729 0-1.319.627-1.319 1.401v12c0 .774.59 1.401 1.319 1.401h5.855c1.914 0 3.464-1.647 3.464-3.678v-.747c0-1.407-.754-2.682-1.928-3.298Zm-6.072 4.921v-9.198h4.536c.219 0 .429.093.584.257a.903.903 0 0 1 .242.62v.103c0 .417-.278.777-.664.859l-3.276.696c-.572.121-1.002.628-1.055 1.246-.053.617.282 1.198.824 1.429l3.652 1.551a.878.878 0 0 1 .519.814v.746c0 .484-.37.877-.826.877h-4.536Z" transform="matrix(.78947 0 0 .74342 7.526 9.697)"/><path fill="url(#c)" d="M31.251 52.03s7.369 1.168 10.706-6.62a1.04 1.04 0 1 0-1.914-.82c-2.663 6.212-8.479 5.38-8.479 5.38a1.043 1.043 0 0 0-.313 2.06Z"/><defs><linearGradient id="a" x1="0" x2="1" y1="0" y2="0" gradientTransform="matrix(64 -64 101.062 101.062 .5 69.5)" gradientUnits="userSpaceOnUse"><stop offset="0" stop-color="#ff000e"/><stop offset="1" stop-color="#642020"/></linearGradient><linearGradient id="b" x1="0" x2="1" y1="0" y2="0" gradientTransform="matrix(81.0667 -86.0885 128.011 135.941 -9.533 73.044)" gradientUnits="userSpaceOnUse"><stop offset="0" stop-color="#ff000e"/><stop offset="1" stop-color="#642020"/></linearGradient><linearGradient id="c" x1="0" x2="1" y1="0" y2="0" gradientTransform="matrix(64 -64 101.062 101.062 0 64)" gradientUnits="userSpaceOnUse"><stop offset="0" stop-color="#ff000e"/><stop offset="1" stop-color="#642020"/></linearGradient></defs></svg>